<svg width="11" height="15" viewBox="0 0 11 15" fill="none" xmlns="http://www.w3.org/2000/svg">
<path d="M5.62322 14.4693C4.57789 14.4693 3.66322 14.1956 2.87922 13.648C2.09522 13.088 1.48549 12.304 1.04989 11.296C0.626822 10.2756 0.415222 9.07466 0.415222 7.69333C0.415222 6.312 0.626822 5.11733 1.04989 4.10933C1.48549 3.08893 2.09522 2.30493 2.87922 1.75733C3.66322 1.19733 4.57789 0.917328 5.62322 0.917328C6.68095 0.917328 7.59562 1.19733 8.36722 1.75733C9.15122 2.30493 9.75482 3.08893 10.1779 4.10933C10.6135 5.11733 10.8312 6.312 10.8312 7.69333C10.8312 9.07466 10.6135 10.2756 10.1779 11.296C9.75482 12.304 9.15122 13.088 8.36722 13.648C7.59562 14.1956 6.68095 14.4693 5.62322 14.4693ZM5.62322 12.2667C6.44455 12.2667 7.09789 11.8623 7.58322 11.0533C8.08096 10.2444 8.32989 9.1244 8.32989 7.69333C8.32989 6.26226 8.08096 5.14226 7.58322 4.33333C7.09789 3.52439 6.44455 3.11999 5.62322 3.11999C4.80189 3.11999 4.14229 3.52439 3.64456 4.33333C3.15922 5.14226 2.91655 6.26226 2.91655 7.69333C2.91655 9.1244 3.15922 10.2444 3.64456 11.0533C4.14229 11.8623 4.80189 12.2667 5.62322 12.2667Z" fill="white"/>
</svg>
